<svg width="40" height="40" viewBox="0 0 40 40" fill="none" xmlns="http://www.w3.org/2000/svg">
<path fill-rule="evenodd" clip-rule="evenodd" d="M29.9789 13.2632H10.0211C9.60248 13.2632 9.26316 13.6025 9.26316 14.0211V25.8947C9.26316 26.3133 9.60248 26.6526 10.0211 26.6526H29.9789C30.3975 26.6526 30.7368 26.3133 30.7368 25.8947V14.0211C30.7368 13.6025 30.3975 13.2632 29.9789 13.2632ZM10.0211 12C8.90486 12 8 12.9049 8 14.0211V25.8947C8 27.0109 8.90486 27.9158 10.0211 27.9158H29.9789C31.0951 27.9158 32 27.0109 32 25.8947V14.0211C32 12.9049 31.0951 12 29.9789 12H10.0211Z" fill="black"/>
<path d="M20.6003 19.0945C20.3615 19.0945 20.1686 18.9015 20.1686 18.663V16.0738C20.1686 15.359 19.5887 14.7791 18.8738 14.7791C18.1591 14.7791 17.5791 15.359 17.5791 16.0738V19.958C17.5791 20.4343 17.1933 20.8212 16.7159 20.8212V16.5054C16.7159 16.0309 16.3273 15.6422 15.8528 15.6422H14.9896L14.558 14.779H13.6948L13.2633 15.6422H12.4001C11.9254 15.6422 11.5369 16.0307 11.5369 16.5054V23.4106C11.5369 23.8852 11.9254 24.2738 12.4001 24.2738H13.2633L13.6948 25.1369H14.558L14.9896 24.2738H15.8528C16.3273 24.2738 16.7159 23.8852 16.7159 23.4106V21.6843C17.6693 21.6843 18.4422 20.9109 18.4422 19.958V16.0738C18.4422 15.8352 18.6353 15.6423 18.8738 15.6423C19.1123 15.6423 19.3055 15.8352 19.3055 16.0738V18.6628C19.3055 19.3777 19.8854 19.9576 20.6003 19.9576H21.895V19.0944L20.6003 19.0945ZM15.8528 23.4106H12.4002V22.577C13.4943 23.0154 14.6541 23.2872 15.8528 23.3752V23.4106ZM15.8528 22.509C14.6483 22.4139 13.4859 22.1179 12.4002 21.6409V20.6795C13.4758 21.2059 14.6399 21.5359 15.8528 21.6422V22.509ZM15.8528 20.7752C14.6298 20.6586 13.4623 20.294 12.4002 19.7111V18.7164C13.4429 19.3702 14.6162 19.7785 15.8528 19.9084V20.7752ZM15.8528 19.0375C14.6298 18.8925 13.4386 18.4352 12.4002 17.6703V16.5577C13.372 17.4406 14.5657 17.9953 15.8528 18.1677V19.0375ZM15.8528 17.2986C15.1 17.1823 14.3861 16.9117 13.7455 16.5054H15.8528V17.2986Z" fill="black"/>
<path d="M23.9158 16.0421C23.9158 15.763 24.142 15.5368 24.421 15.5368H27.9579C28.2369 15.5368 28.4631 15.763 28.4631 16.0421V16.2947C28.4631 16.5738 28.2369 16.8 27.9579 16.8H24.421C24.142 16.8 23.9158 16.5738 23.9158 16.2947V16.0421Z" fill="black"/>
<path d="M23.9158 19.3263C23.9158 19.0473 24.142 18.821 24.421 18.821H27.9579C28.2369 18.821 28.4631 19.0473 28.4631 19.3263V19.5789C28.4631 19.858 28.2369 20.0842 27.9579 20.0842H24.421C24.142 20.0842 23.9158 19.858 23.9158 19.5789V19.3263Z" fill="black"/>
<path d="M23.9158 22.6105C23.9158 22.3315 24.142 22.1053 24.421 22.1053H27.9579C28.2369 22.1053 28.4631 22.3315 28.4631 22.6105V22.8631C28.4631 23.1422 28.2369 23.3684 27.9579 23.3684H24.421C24.142 23.3684 23.9158 23.1422 23.9158 22.8631V22.6105Z" fill="black"/>
</svg>
