<svg width="40" height="40" viewBox="0 0 40 40" fill="none" xmlns="http://www.w3.org/2000/svg">
<path d="M30.0931 12.5506H29.7357V12.0024C29.7357 11.188 29.0735 10.5258 28.2591 10.5258H25.4042C24.5897 10.5258 23.9276 11.1879 23.9276 12.0024V12.5506H23.5701C22.6513 12.5506 21.9028 13.2979 21.9028 14.218V18.409H21.0571C20.2198 18.409 19.5385 19.0891 19.5385 19.9263V26.0869C19.5385 26.4264 19.2626 26.7035 18.922 26.7035C18.5825 26.7035 18.3054 26.4276 18.3054 26.0869L18.3066 15.1795C18.3066 14.3423 17.6265 13.661 16.788 13.661H16.5997V12.5466C16.5997 10.7437 15.1327 9.27686 13.33 9.27686C11.5272 9.27686 10.059 10.7439 10.059 12.5466V13.661H7.7583V14.695H10.059V16.4247C10.059 17.1456 10.2581 17.8509 10.6336 18.465C10.8543 18.8273 10.9958 19.2423 11.039 19.6645L12.2745 31.3657L13.3037 31.2577L12.0682 19.5566C12.0082 18.9832 11.8163 18.4194 11.5152 17.9276C11.2393 17.4754 11.093 16.956 11.093 16.427V14.6973H12.3297V15.7301C12.3297 16.2603 12.7591 16.6885 13.2881 16.6885H13.3696C13.8998 16.6885 14.3281 16.2591 14.3281 15.7301V14.6973H15.5648V16.427C15.5648 16.9572 15.4184 17.4754 15.1425 17.9288C14.8426 18.4206 14.6507 18.9844 14.5895 19.5578L13.354 31.2589L14.3832 31.3669L15.6187 19.6657C15.6631 19.2435 15.8035 18.8285 16.0254 18.4662C16.4008 17.8509 16.5987 17.1455 16.5987 16.4259V14.6961H16.7871C17.0534 14.6961 17.2693 14.9133 17.2693 15.1784V26.0857C17.2693 26.9961 18.0094 27.7363 18.9198 27.7363C19.8302 27.7363 20.5703 26.9961 20.5703 26.0857V19.9251C20.5703 19.6589 20.7875 19.4429 21.0526 19.4429H21.8982V27.5409C21.8982 28.4597 22.6455 29.2082 23.5655 29.2082H23.923V29.7564C23.923 30.5709 24.5851 31.233 25.3996 31.233H28.2545C29.0689 31.233 29.7311 30.5709 29.7311 29.7564V29.2082H30.0886C31.0074 29.2082 31.7559 28.4609 31.7559 27.5409L31.7583 14.2177C31.7583 13.2989 31.011 12.5504 30.091 12.5504L30.0931 12.5506ZM14.329 13.6626V12.6298C14.329 12.0996 13.8996 11.6714 13.3706 11.6714H13.289C12.7589 11.6714 12.3306 12.1008 12.3306 12.6298V13.6626H11.0939V12.5482C11.0939 11.3151 12.0967 10.3123 13.3311 10.3123C14.5654 10.3123 15.5669 11.3151 15.5669 12.5482V13.6626H14.329ZM22.9355 20.5454L30.7251 16.2224V18.126L22.9355 22.449V20.5454ZM22.9355 23.6331L30.7251 19.31V21.2137L22.9355 25.5367V23.6331ZM30.7251 14.2181V15.041L22.9355 19.364V17.4604L29.9239 13.586H30.0931C30.4409 13.586 30.7251 13.8702 30.7251 14.2181ZM24.9603 12.0026C24.9603 11.7591 25.1595 11.56 25.403 11.56H28.2578C28.5013 11.56 28.7004 11.7591 28.7004 12.0026V12.5508H24.9603L24.9603 12.0026ZM23.5677 13.5847H27.7912L22.9357 16.2765V14.2169C22.9357 13.869 23.2198 13.5847 23.5677 13.5847ZM22.9355 27.5411V26.7182L30.7252 22.3952V24.3L23.7561 28.1732H23.5677C23.2199 28.1732 22.9355 27.8889 22.9355 27.5411ZM28.7003 29.7566C28.7003 30.0001 28.5012 30.1992 28.2577 30.1992H25.4028C25.1593 30.1992 24.9602 30.0001 24.9602 29.7566V29.2084H28.7004L28.7003 29.7566ZM30.093 28.1744H25.8863L30.7252 25.4851V27.5411C30.7252 27.8889 30.4409 28.1732 30.0931 28.1732L30.093 28.1744Z" fill="black"/>
</svg>
