<svg width="40" height="40" viewBox="0 0 40 40" fill="none" xmlns="http://www.w3.org/2000/svg">
<path d="M31.25 15.5H29V14.75C29 14.5511 28.921 14.3603 28.7803 14.2197C28.6397 14.079 28.4489 14 28.25 14C28.0511 14 27.8603 14.079 27.7197 14.2197C27.579 14.3603 27.5 14.5511 27.5 14.75V15.5H25.25C25.0511 15.5 24.8603 15.579 24.7197 15.7197C24.579 15.8603 24.5 16.0511 24.5 16.25V25.25C24.5 25.4489 24.579 25.6397 24.7197 25.7803C24.8603 25.921 25.0511 26 25.25 26H27.5V27.5H20.75V26H23C23.1989 26 23.3897 25.921 23.5303 25.7803C23.671 25.6397 23.75 25.4489 23.75 25.25V13.25C23.75 13.0511 23.671 12.8603 23.5303 12.7197C23.3897 12.579 23.1989 12.5 23 12.5H20.75V11.75C20.75 11.5511 20.671 11.3603 20.5303 11.2197C20.3897 11.079 20.1989 11 20 11C19.8011 11 19.6103 11.079 19.4697 11.2197C19.329 11.3603 19.25 11.5511 19.25 11.75V12.5H17C16.8011 12.5 16.6103 12.579 16.4697 12.7197C16.329 12.8603 16.25 13.0511 16.25 13.25V25.25C16.25 25.4489 16.329 25.6397 16.4697 25.7803C16.6103 25.921 16.8011 26 17 26H19.25V27.5H12.5V26H14.75C14.9489 26 15.1397 25.921 15.2803 25.7803C15.421 25.6397 15.5 25.4489 15.5 25.25V10.25C15.5 10.0511 15.421 9.86032 15.2803 9.71967C15.1397 9.57902 14.9489 9.5 14.75 9.5H12.5V8.75C12.5 8.55109 12.421 8.36032 12.2803 8.21967C12.1397 8.07902 11.9489 8 11.75 8C11.5511 8 11.3603 8.07902 11.2197 8.21967C11.079 8.36032 11 8.55109 11 8.75V9.5H8.75C8.55109 9.5 8.36032 9.57902 8.21967 9.71967C8.07902 9.86032 8 10.0511 8 10.25V25.25C8 25.4489 8.07902 25.6397 8.21967 25.7803C8.36032 25.921 8.55109 26 8.75 26H11V27.5H8.75C8.55109 27.5 8.36032 27.579 8.21967 27.7197C8.07902 27.8603 8 28.0511 8 28.25V31.25C8 31.4489 8.07902 31.6397 8.21967 31.7803C8.36032 31.921 8.55109 32 8.75 32H31.25C31.4489 32 31.6397 31.921 31.7803 31.7803C31.921 31.6397 32 31.4489 32 31.25V28.25C32 28.0511 31.921 27.8603 31.7803 27.7197C31.6397 27.579 31.4489 27.5 31.25 27.5H29V26H31.25C31.4489 26 31.6397 25.921 31.7803 25.7803C31.921 25.6397 32 25.4489 32 25.25V16.25C32 16.0511 31.921 15.8603 31.7803 15.7197C31.6397 15.579 31.4489 15.5 31.25 15.5ZM22.25 18.5H17.75V17H22.25V18.5ZM17.75 20H22.25V21.5H17.75V20ZM22.25 14V15.5H17.75V14H22.25ZM17.75 23H22.25V24.5H17.75V23ZM14 18.5H9.5V17H14V18.5ZM14 15.5H9.5V14H14V15.5ZM9.5 20H14V21.5H9.5V20ZM14 11V12.5H9.5V11H14ZM9.5 23H14V24.5H9.5V23ZM30.5 30.5H9.5V29H30.5V30.5ZM26 20H30.5V21.5H26V20ZM30.5 17V18.5H26V17H30.5ZM26 24.5V23H30.5V24.5H26Z" fill="black"/>
</svg>
