<svg width="40" height="40" viewBox="0 0 40 40" fill="none" xmlns="http://www.w3.org/2000/svg">
<path fill-rule="evenodd" clip-rule="evenodd" d="M26.2727 30.3636C26.2727 29.9294 26.1002 29.5133 25.7935 29.2067C25.4865 28.8996 25.0704 28.7273 24.6363 28.7273C22.5462 28.7273 17.9992 28.7273 15.9091 28.7273C15.475 28.7273 15.0589 28.8996 14.7519 29.2067C14.4452 29.5133 14.2727 29.9294 14.2727 30.3636C14.2727 30.9091 14.2727 31.4545 14.2727 31.4545C14.2727 31.7556 14.5169 32 14.8182 32H25.7272C26.0285 32 26.2727 31.7556 26.2727 31.4545V30.3636ZM25.1818 30.3636V30.9091H15.3636V30.3636C15.3636 30.2191 15.421 30.08 15.5234 29.978C15.6257 29.8754 15.7644 29.8182 15.9091 29.8182H24.6363C24.781 29.8182 24.9197 29.8754 25.022 29.978C25.1244 30.08 25.1818 30.2191 25.1818 30.3636Z" fill="black"/>
<path fill-rule="evenodd" clip-rule="evenodd" d="M22.1769 13.3798C22.1393 13.1104 21.9086 12.9091 21.6364 12.9091H19.4546C19.1824 12.9091 18.9516 13.1104 18.914 13.3798L16.7322 29.198C16.7109 29.3545 16.7578 29.5122 16.8615 29.6311C16.9651 29.75 17.1151 29.8182 17.2727 29.8182H23.8182C23.9758 29.8182 24.1258 29.75 24.2295 29.6311C24.3331 29.5122 24.38 29.3545 24.3587 29.198L22.1769 13.3798ZM21.1607 14L23.1926 28.7273H17.8984L19.9302 14H21.1607Z" fill="black"/>
<path fill-rule="evenodd" clip-rule="evenodd" d="M18.3637 14H22.7273C23.0284 14 23.2728 13.7556 23.2728 13.4545C23.2728 13.1535 23.0284 12.9091 22.7273 12.9091H18.3637C18.0626 12.9091 17.8182 13.1535 17.8182 13.4545C17.8182 13.7556 18.0626 14 18.3637 14Z" fill="black"/>
<path fill-rule="evenodd" clip-rule="evenodd" d="M17.2728 16.1818H23.8182C24.1193 16.1818 24.3639 15.9375 24.3639 15.6364C24.3639 15.3353 24.1193 15.0909 23.8182 15.0909H17.2728C16.9717 15.0909 16.7271 15.3353 16.7271 15.6364C16.7271 15.9375 16.9717 16.1818 17.2728 16.1818Z" fill="black"/>
<path fill-rule="evenodd" clip-rule="evenodd" d="M21.5343 15.2404L18.3647 18.2404C18.2419 18.3566 18.1798 18.5229 18.1972 18.6915C18.2141 18.8595 18.3085 19.0106 18.4519 19.0995L21.6947 21.1149L17.6398 23.9147C17.4805 24.0249 17.391 24.2115 17.4057 24.4046C17.4205 24.5982 17.5367 24.7689 17.7107 24.854L23.3065 27.5813C23.577 27.7133 23.9037 27.6004 24.0357 27.3298C24.1677 27.0593 24.0548 26.7326 23.7843 26.6006L19.0279 24.2824L22.9994 21.5398C23.151 21.4351 23.2394 21.2616 23.235 21.0778C23.2307 20.894 23.1336 20.7249 22.9776 20.6278L19.6285 18.5464L22.2838 16.0324C22.5025 15.8256 22.5123 15.4798 22.305 15.2616C22.0983 15.0429 21.7525 15.0331 21.5343 15.2404Z" fill="black"/>
<path fill-rule="evenodd" clip-rule="evenodd" d="M16.1817 27.6364H24.909C25.2098 27.6364 25.4547 27.392 25.4542 27.0909C25.4542 26.7898 25.2098 26.5455 24.909 26.5455H16.1817C15.8809 26.5455 15.6365 26.7898 15.636 27.0909C15.636 27.392 15.8809 27.6364 16.1817 27.6364Z" fill="black"/>
<path fill-rule="evenodd" clip-rule="evenodd" d="M14.8182 30.9091H12.6364C12.3353 30.9091 12.0909 30.6647 12.0909 30.3636V9.63636C12.0909 9.33527 12.3353 9.09091 12.6364 9.09091C15.7705 9.09091 24.7749 9.09091 27.9091 9.09091C28.2102 9.09091 28.4545 9.33527 28.4545 9.63636V30.3636C28.4545 30.6647 28.2102 30.9091 27.9091 30.9091H25.7273C25.4262 30.9091 25.1818 31.1535 25.1818 31.4545C25.1818 31.7556 25.4262 32 25.7273 32H27.9091C28.8129 32 29.5455 31.2675 29.5455 30.3636V9.63636C29.5455 8.73255 28.8129 8 27.9091 8C24.7749 8 15.7705 8 12.6364 8C11.7325 8 11 8.73255 11 9.63636V30.3636C11 31.2675 11.7325 32 12.6364 32H14.8182C15.1193 32 15.3636 31.7556 15.3636 31.4545C15.3636 31.1535 15.1193 30.9091 14.8182 30.9091Z" fill="black"/>
<path fill-rule="evenodd" clip-rule="evenodd" d="M13.7273 11.8182H15.3637C15.6648 11.8182 15.909 11.5738 15.909 11.2727C15.909 10.9716 15.6648 10.7273 15.3637 10.7273H13.7273C13.4262 10.7273 13.182 10.9716 13.182 11.2727C13.182 11.5738 13.4262 11.8182 13.7273 11.8182Z" fill="black"/>
<path fill-rule="evenodd" clip-rule="evenodd" d="M13.7273 14H15.3637C15.6648 14 15.909 13.7556 15.909 13.4545C15.909 13.1535 15.6648 12.9091 15.3637 12.9091H13.7273C13.4262 12.9091 13.182 13.1535 13.182 13.4545C13.182 13.7556 13.4262 14 13.7273 14Z" fill="black"/>
</svg>
