<svg width="40" height="40" viewBox="0 0 40 40" fill="none" xmlns="http://www.w3.org/2000/svg">
<path d="M28.1813 23.4159L31.7072 20.9136C31.7046 20.8853 31.7033 20.8567 31.7033 20.8277C31.7033 20.3204 32.1146 19.9091 32.6219 19.9091C33.1293 19.9091 33.5406 20.3204 33.5406 20.8277C33.5406 21.3351 33.1293 21.7464 32.6219 21.7464C32.4852 21.7464 32.3554 21.7165 32.2388 21.6629L28.7067 24.1695C29.152 24.9439 29.4066 25.8417 29.4066 26.799C29.4066 29.7163 27.0417 32.0813 24.1243 32.0813C23.1323 32.0813 22.2042 31.8079 21.4112 31.3322L20.365 32.8065C20.2181 33.0134 19.9314 33.062 19.7245 32.9152C19.5177 32.7684 19.469 32.4817 19.6158 32.2748L20.6673 30.7931C20.4757 30.6271 20.2962 30.4476 20.1303 30.256L18.6485 31.3076C18.4417 31.4544 18.1549 31.4057 18.0081 31.1988C17.8613 30.9919 17.91 30.7052 18.1169 30.5584L19.5911 29.5122C19.1155 28.7192 18.842 27.791 18.842 26.799C18.842 23.8817 21.207 21.5167 24.1243 21.5167C25.0816 21.5167 25.9795 21.7714 26.7538 22.2167L29.2604 18.6846C29.2068 18.568 29.177 18.4382 29.177 18.3014C29.177 17.7941 29.5882 17.3828 30.0956 17.3828C30.603 17.3828 31.0143 17.7941 31.0143 18.3014C31.0143 18.8088 30.603 19.2201 30.0956 19.2201C30.0666 19.2201 30.038 19.2187 30.0097 19.2161L27.5074 22.7421C27.7517 22.946 27.9773 23.1716 28.1813 23.4159ZM25.9593 30.7592C25.9134 29.0359 25.1855 27.4381 23.9689 26.2788C23.9198 26.5998 23.8947 26.927 23.8947 27.2583C23.8947 28.6415 24.3322 29.9567 25.1283 31.0466C25.4175 30.9785 25.6955 30.8816 25.9593 30.7592ZM26.8451 30.2108C27.016 30.0743 27.1763 29.9253 27.3248 29.7652C27.3347 29.6193 27.3396 29.4726 27.3396 29.3253C27.3396 27.242 26.3414 25.3307 24.7036 24.1328C24.5031 24.4927 24.3376 24.8717 24.2096 25.265C25.7018 26.4973 26.6548 28.2666 26.8451 30.2108ZM28.1965 28.3703C28.3847 27.8828 28.488 27.3529 28.488 26.799C28.488 24.9613 27.3519 23.3889 25.7438 22.7458C25.5513 22.941 25.3723 23.1474 25.2075 23.3635C26.8467 24.5462 27.9337 26.3521 28.1965 28.3703ZM24.7421 22.4788C24.5403 22.4502 24.334 22.4354 24.1243 22.4354C24.0837 22.4354 24.0432 22.4359 24.0028 22.437C22.6307 23.6487 21.8277 25.3876 21.8277 27.2583C21.8277 28.6333 22.2599 29.9416 23.0486 31.029C23.3844 31.1142 23.7358 31.1604 24.0976 31.1626C23.3712 30.0065 22.976 28.6622 22.976 27.2583C22.976 25.4753 23.6147 23.7938 24.7421 22.4788ZM21.5896 30.3514C21.1455 29.3954 20.909 28.3446 20.909 27.2583C20.909 25.6044 21.459 24.0394 22.4342 22.7748C20.8636 23.4352 19.7607 24.9883 19.7607 26.799C19.7607 28.2638 20.4824 29.56 21.5896 30.3514Z" fill="black"/>
<path fill-rule="evenodd" clip-rule="evenodd" d="M10 10.7225C10 9.77118 10.7712 9 11.7225 9H24.5837C25.535 9 26.3062 9.77118 26.3062 10.7225V19.7307H25.1579V10.7225C25.1579 10.4054 24.9008 10.1483 24.5837 10.1483H11.7225C11.4054 10.1483 11.1483 10.4054 11.1483 10.7225V28.6363C11.1483 28.9534 11.4054 29.2105 11.7225 29.2105H16.335V30.3588H11.7225C10.7712 30.3588 10 29.5876 10 28.6363V10.7225Z" fill="black"/>
<path fill-rule="evenodd" clip-rule="evenodd" d="M21.7129 13.9378H13.6747V12.7895H21.7129V13.9378Z" fill="black"/>
<path fill-rule="evenodd" clip-rule="evenodd" d="M21.7129 16.5861H13.6747V15.4378H21.7129V16.5861Z" fill="black"/>
<path fill-rule="evenodd" clip-rule="evenodd" d="M21.7129 19.2344H13.6747V18.0861H21.7129V19.2344Z" fill="black"/>
<path fill-rule="evenodd" clip-rule="evenodd" d="M18.268 21.8828H13.6747V20.7344H18.268V21.8828Z" fill="black"/>
</svg>
