<svg width="40" height="40" viewBox="0 0 40 40" fill="none" xmlns="http://www.w3.org/2000/svg">
<path d="M28.7009 17.7918L26.9819 19.5108L26.3537 18.8827C26.2308 18.7607 26.0646 18.6924 25.8914 18.6927C25.7183 18.693 25.5523 18.7619 25.4299 18.8844C25.3074 19.0068 25.2385 19.1728 25.2382 19.346C25.2378 19.5191 25.3062 19.6853 25.4282 19.8082L26.5191 20.8992C26.5798 20.9599 26.652 21.0082 26.7314 21.0411C26.8108 21.074 26.8959 21.0909 26.9819 21.0909C27.0678 21.0909 27.1529 21.074 27.2323 21.0411C27.3117 21.0082 27.3839 20.9599 27.4446 20.8992L29.6265 18.7173C29.7485 18.5944 29.8168 18.4282 29.8165 18.255C29.8162 18.0819 29.7472 17.9159 29.6248 17.7935C29.5023 17.671 29.3363 17.6021 29.1632 17.6018C28.99 17.6014 28.8238 17.6698 28.7009 17.7918Z" fill="black"/>
<path d="M24.3637 8C23.9588 8.00049 23.5706 8.16156 23.2843 8.44787C22.998 8.73418 22.8369 9.12237 22.8364 9.52727V14.4479C22.8365 14.4989 22.8187 14.5483 22.7861 14.5876L19.8172 18.1497C19.6314 18.3727 19.513 18.644 19.4758 18.9319C19.4387 19.2198 19.4843 19.5123 19.6074 19.7751C19.7305 20.038 19.926 20.2603 20.1709 20.4161C20.4159 20.5718 20.7001 20.6545 20.9904 20.6545H22.6182C22.6761 20.6547 22.7315 20.6777 22.7724 20.7186C22.8133 20.7595 22.8363 20.8149 22.8364 20.8727V22.6182C22.8369 23.0231 22.998 23.4113 23.2843 23.6976C23.5706 23.9839 23.9588 24.145 24.3637 24.1455H30.4728C30.8777 24.145 31.2659 23.9839 31.5522 23.6976C31.8385 23.4113 31.9996 23.0231 32 22.6182V9.52727C31.9996 9.12237 31.8385 8.73418 31.5522 8.44787C31.2659 8.16156 30.8777 8.00049 30.4728 8H24.3637ZM30.691 9.52727V22.6182C30.6908 22.676 30.6678 22.7314 30.6269 22.7723C30.586 22.8132 30.5306 22.8363 30.4728 22.8364H24.3637C24.3059 22.8363 24.2504 22.8132 24.2095 22.7723C24.1686 22.7314 24.1456 22.676 24.1455 22.6182V20.8727C24.145 20.4678 23.9839 20.0796 23.6976 19.7933C23.4113 19.507 23.0231 19.3459 22.6182 19.3455H20.9904C20.9489 19.3454 20.9083 19.3336 20.8733 19.3113C20.8383 19.2891 20.8104 19.2573 20.7928 19.2197C20.7752 19.1822 20.7687 19.1404 20.7741 19.0992C20.7794 19.0581 20.7963 19.0193 20.8229 18.9875L23.7927 15.425C24.0205 15.1503 24.1453 14.8047 24.1455 14.4479V9.52727C24.1456 9.46944 24.1686 9.41401 24.2095 9.37312C24.2504 9.33222 24.3059 9.3092 24.3637 9.30909H30.4728C30.5306 9.3092 30.586 9.33222 30.6269 9.37312C30.6678 9.41401 30.6908 9.46944 30.691 9.52727Z" fill="black"/>
<path d="M10.1818 17.3818C10.1818 18.288 10.4505 19.1739 10.9539 19.9273C11.4574 20.6808 12.173 21.2681 13.0102 21.6149C13.8474 21.9617 14.7687 22.0524 15.6574 21.8756C16.5462 21.6988 17.3626 21.2624 18.0034 20.6217C18.6442 19.9809 19.0806 19.1645 19.2574 18.2757C19.4342 17.3869 19.3434 16.4656 18.9966 15.6284C18.6498 14.7912 18.0626 14.0756 17.3091 13.5722C16.5556 13.0687 15.6698 12.8 14.7636 12.8C13.5488 12.8013 12.3842 13.2845 11.5252 14.1434C10.6662 15.0024 10.1831 16.1671 10.1818 17.3818ZM18.0363 17.3818C18.0363 18.0291 17.8444 18.6618 17.4848 19.2C17.1251 19.7382 16.614 20.1577 16.016 20.4054C15.418 20.6531 14.76 20.7179 14.1251 20.5917C13.4903 20.4654 12.9071 20.1537 12.4494 19.696C11.9917 19.2383 11.68 18.6551 11.5537 18.0203C11.4275 17.3854 11.4923 16.7274 11.74 16.1294C11.9877 15.5314 12.4072 15.0203 12.9454 14.6606C13.4835 14.301 14.1163 14.1091 14.7636 14.1091C15.6313 14.11 16.4632 14.4551 17.0767 15.0687C17.6903 15.6822 18.0354 16.5141 18.0363 17.3818Z" fill="black"/>
<path d="M8.65455 32H20.8727C21.0463 31.9999 21.2128 31.931 21.3355 31.8082C21.4583 31.6855 21.5272 31.519 21.5273 31.3454V25.2364C21.5263 24.3687 21.1812 23.5368 20.5677 22.9232C19.9541 22.3097 19.1222 21.9646 18.2545 21.9636C17.9884 21.9621 17.729 22.0468 17.5151 22.2052C17.3012 22.3635 17.1444 22.5869 17.0682 22.8419C16.9255 23.343 16.6233 23.784 16.2074 24.098C15.7916 24.412 15.2847 24.5818 14.7636 24.5818C14.2426 24.5818 13.7357 24.412 13.3198 24.098C12.904 23.784 12.6018 23.343 12.4591 22.8419C12.3829 22.5869 12.2261 22.3635 12.0122 22.2052C11.7983 22.0468 11.5388 21.9621 11.2727 21.9636C10.405 21.9646 9.57316 22.3097 8.95961 22.9232C8.34606 23.5368 8.00095 24.3687 8 25.2364V31.3454C8.00005 31.519 8.06902 31.6855 8.19176 31.8082C8.3145 31.931 8.48096 31.9999 8.65455 32ZM9.30909 25.2364C9.30966 24.7246 9.50978 24.2333 9.86691 23.8667C10.224 23.5002 10.71 23.2874 11.2216 23.2736C11.4544 24.0314 11.924 24.6945 12.5616 25.1656C13.1991 25.6367 13.9709 25.8909 14.7636 25.8909C15.5563 25.8909 16.3282 25.6367 16.9657 25.1656C17.6032 24.6945 18.0729 24.0314 18.3057 23.2736C18.8172 23.2874 19.3032 23.5002 19.6604 23.8667C20.0175 24.2333 20.2176 24.7246 20.2182 25.2364V30.6909H18.4727V27.8545C18.4727 27.6809 18.4038 27.5145 18.281 27.3917C18.1583 27.269 17.9918 27.2 17.8182 27.2C17.6446 27.2 17.4781 27.269 17.3553 27.3917C17.2326 27.5145 17.1636 27.6809 17.1636 27.8545V30.6909H12.3636V27.8545C12.3636 27.6809 12.2947 27.5145 12.1719 27.3917C12.0492 27.269 11.8827 27.2 11.7091 27.2C11.5355 27.2 11.369 27.269 11.2463 27.3917C11.1235 27.5145 11.0545 27.6809 11.0545 27.8545V30.6909H9.30909V25.2364Z" fill="black"/>
<path d="M25.8909 15.2H28.9454C29.119 15.2 29.2855 15.131 29.4082 15.0082C29.5309 14.8855 29.5999 14.719 29.6 14.5455V11.4909C29.5999 11.3173 29.5309 11.1509 29.4082 11.0281C29.2855 10.9054 29.119 10.8364 28.9454 10.8364H25.8909C25.7173 10.8364 25.5508 10.9054 25.4281 11.0281C25.3054 11.1509 25.2364 11.3173 25.2363 11.4909V14.5455C25.2364 14.719 25.3054 14.8855 25.4281 15.0082C25.5508 15.131 25.7173 15.2 25.8909 15.2ZM26.5454 12.1455H28.2909V13.8909H26.5454V12.1455Z" fill="black"/>
</svg>
