<svg width="40" height="40" viewBox="0 0 40 40" fill="none" xmlns="http://www.w3.org/2000/svg">
<path d="M16.1464 8H23.1863H28.6665C29.0347 8 29.3328 8.29887 29.3328 8.66709V31.3329C29.3328 31.7011 29.0347 32 28.6665 32H10.6671C10.2989 32 10 31.7011 10 31.3329V8.66709C10 8.29887 10.2989 8 10.6671 8H16.1464ZM13.5395 27.7512C13.2589 27.5153 13.2231 27.0961 13.459 26.8155C13.6949 26.5358 14.1133 26.4991 14.3938 26.735L14.6816 26.9773L15.3239 26.2178C15.5615 25.938 15.9815 25.903 16.262 26.1397C16.5426 26.3772 16.5768 26.7972 16.3401 27.0777L15.269 28.3426L15.2682 28.341C15.0322 28.6199 14.6146 28.6558 14.3341 28.4207L13.5395 27.7512ZM13.5395 23.7503C13.2589 23.5144 13.2231 23.0959 13.459 22.8154C13.6949 22.5349 14.1133 22.499 14.3938 22.7341L14.6816 22.9764L15.3239 22.2176C15.5615 21.9371 15.9815 21.902 16.262 22.1395C16.5426 22.3762 16.5768 22.7963 16.3401 23.0768L15.269 24.3416L15.2682 24.3401C15.0322 24.6198 14.6146 24.6549 14.3341 24.4198L13.5395 23.7503ZM13.5395 15.75C13.2589 15.5141 13.2231 15.0957 13.459 14.8151C13.6949 14.5346 14.1133 14.4987 14.3938 14.7346L14.6816 14.9769L15.3239 14.2174C15.5615 13.9368 15.9815 13.9018 16.262 14.1393C16.5426 14.3768 16.5768 14.796 16.3401 15.0765L15.269 16.3414L15.2682 16.3406C15.0322 16.6195 14.6146 16.6554 14.3341 16.4195L13.5395 15.75ZM13.5395 19.7501C13.2589 19.5142 13.2231 19.0958 13.459 18.8153C13.6949 18.5347 14.1133 18.4989 14.3938 18.7348L14.6816 18.9763L15.3239 18.2175C15.5615 17.937 15.9815 17.9019 16.262 18.1394C16.5426 18.3769 16.5768 18.7969 16.3401 19.0767L15.269 20.3415L15.2682 20.3399C15.0322 20.6197 14.6146 20.6547 14.3341 20.4196L13.5395 19.7501ZM18.3262 27.9465C17.958 27.9465 17.6592 27.6484 17.6592 27.2802C17.6592 26.912 17.958 26.6131 18.3262 26.6131H25.3661C25.7343 26.6131 26.0332 26.912 26.0332 27.2802C26.0332 27.6484 25.7343 27.9465 25.3661 27.9465H18.3262ZM18.3262 15.9461C17.958 15.9461 17.6592 15.6472 17.6592 15.2798C17.6592 14.9116 17.958 14.6127 18.3262 14.6127H25.3661C25.7343 14.6127 26.0332 14.9116 26.0332 15.2798C26.0332 15.6472 25.7343 15.9461 25.3661 15.9461H18.3262ZM18.3262 19.9462C17.958 19.9462 17.6592 19.6481 17.6592 19.2799C17.6592 18.9117 17.958 18.6128 18.3262 18.6128H25.3661C25.7343 18.6128 26.0332 18.9117 26.0332 19.2799C26.0332 19.6481 25.7343 19.9462 25.3661 19.9462H18.3262ZM18.3262 23.9463C17.958 23.9463 17.6592 23.6475 17.6592 23.2792C17.6592 22.911 17.958 22.613 18.3262 22.613H25.3661C25.7343 22.613 26.0332 22.911 26.0332 23.2792C26.0332 23.6475 25.7343 23.9463 25.3661 23.9463H18.3262ZM23.8534 9.33338V11.2262C23.8534 11.5945 23.5545 11.8933 23.1863 11.8933H16.1464C15.7782 11.8933 15.4802 11.5945 15.4802 11.2262V9.33338H11.3334V30.6666H27.9994V9.33338H23.8534ZM22.52 9.33338H16.8135V10.56H22.52V9.33338Z" fill="black"/>
</svg>
