<svg width="40" height="40" viewBox="0 0 40 40" fill="none" xmlns="http://www.w3.org/2000/svg">
<path fill-rule="evenodd" clip-rule="evenodd" d="M17.4494 25.2969C17.0962 25.2969 16.8109 25.6054 16.8109 25.9893C16.8109 26.3727 17.0962 26.6823 17.4494 26.6823H25.7506C26.1033 26.6823 26.3892 26.3727 26.3892 25.9893C26.3892 25.6054 26.1038 25.2969 25.7506 25.2969H17.4494ZM17.4494 20.6763C17.0962 20.6763 16.8109 20.9859 16.8109 21.3698C16.8109 21.7531 17.0962 22.0627 17.4494 22.0627H25.7506C26.1033 22.0627 26.3892 21.7531 26.3892 21.3698C26.3892 20.9859 26.1038 20.6763 25.7506 20.6763H17.4494ZM23.835 12.8231C23.4812 12.8231 23.1959 13.1327 23.1959 13.516C23.1959 13.8999 23.4807 14.2089 23.835 14.2089H25.7506C26.1033 14.2089 26.3892 13.8999 26.3892 13.516C26.3892 13.1327 26.1038 12.8231 25.7506 12.8231H23.835ZM23.835 15.5953C23.4812 15.5953 23.1959 15.9049 23.1959 16.2883C23.1959 16.6716 23.4807 16.9812 23.835 16.9812H25.7506C26.1033 16.9812 26.3892 16.6716 26.3892 16.2883C26.3892 15.9049 26.1038 15.5953 25.7506 15.5953H23.835ZM21.0681 12.8322V16.9327H17.8753V12.8322H21.0681ZM21.0681 11.6773H17.822C17.3961 11.5616 16.8109 12.1969 16.8109 12.6589V17.1056C16.8109 17.3942 17.2895 18.0295 17.7154 18.0871H21.1741C21.4934 18.0871 22.132 17.4518 22.132 17.0474V12.6589C22.132 12.1974 21.3868 11.5621 21.0681 11.6773ZM12.6603 30.6116C12.0217 30.6116 11.2771 29.7463 11.2771 29.111V15.2508C11.1705 14.6154 12.2344 13.5763 12.7669 13.7491H13.1906V26.6823C13.1906 27.0661 13.4776 27.3746 13.8313 27.3746C14.1845 27.3746 14.4677 27.0661 14.4677 26.6823V10.832C14.4144 10.2543 15.2662 9.27065 15.7981 9.38586H27.3454C27.9839 9.32987 28.7286 10.2538 28.7286 10.832V29.0809C28.7819 29.482 28.0372 30.5819 27.4515 30.5819L12.6603 30.6116ZM13.1906 12.3633H12.5542C11.4365 12.3633 10.0528 13.8073 10 15.0203V29.3415C10 30.4393 11.4898 32.0561 12.5009 31.9985L27.6647 31.9678C28.622 31.9678 30.0057 30.2917 30.0057 29.2515V10.6565C30.0057 9.56192 28.7286 8 27.5581 8H15.5849C14.5743 8 13.1373 9.56139 13.1906 10.6565V12.3633Z" fill="black"/>
</svg>
