<svg width="40" height="40" viewBox="0 0 40 40" fill="none" xmlns="http://www.w3.org/2000/svg">
<path fill-rule="evenodd" clip-rule="evenodd" d="M16.7636 9.50308C16.7636 8.63611 17.4951 7.9489 18.3604 8.00299L22.8695 8.2848C23.6617 8.33431 24.2787 8.9912 24.2787 9.7849V11.285C24.2787 11.3324 24.2766 11.3793 24.2723 11.4255L28.8347 11.7106C29.2489 11.7365 29.5637 12.0933 29.5379 12.5076C29.512 12.9218 29.1552 13.2366 28.741 13.2108L10.7047 12.0835C10.2904 12.0576 9.9756 11.7008 10.0015 11.2865C10.0274 10.8723 10.3842 10.5575 10.7984 10.5834L16.7636 10.9562V9.50308ZM22.7757 9.7849L18.2666 9.50308V11.0032L22.7757 11.285V9.7849ZM10.1955 14.9612C10.3379 14.8045 10.5398 14.7152 10.7515 14.7152H28.7878C28.9995 14.7152 29.2014 14.8045 29.3438 14.9612C29.4863 15.1178 29.556 15.3272 29.5359 15.538L28.1625 29.9592C28.0523 31.1164 27.0804 32 25.9182 32H13.6212C12.4589 32 11.4871 31.1164 11.3769 29.9592L10.0034 15.538C9.98334 15.3272 10.0531 15.1178 10.1955 14.9612ZM11.578 16.2182L12.8731 29.8167C12.9099 30.2025 13.2338 30.497 13.6212 30.497H25.9182C26.3056 30.497 26.6295 30.2025 26.6663 29.8167L27.9614 16.2182H11.578ZM18.4547 19.0904C19.0817 18.1499 20.4835 18.2121 21.0248 19.2045L21.6923 20.4283L21.7834 20.2976C22.0207 19.9571 22.4892 19.8734 22.8297 20.1108C23.1702 20.3481 23.2538 20.8165 23.0165 21.157L22.2309 22.2843C22.0903 22.4859 21.8601 22.6061 21.6143 22.6061H20.1454C19.7304 22.6061 19.3939 22.2696 19.3939 21.8546C19.3939 21.4395 19.7304 21.1031 20.1454 21.1031H20.3483L19.7053 19.9242L18.892 21.1442C18.6617 21.4895 18.1952 21.5828 17.8498 21.3526C17.5045 21.1224 17.4111 20.6558 17.6414 20.3105L18.4547 19.0904ZM17.3329 21.8771C17.641 21.8 17.9643 21.925 18.1405 22.1892L18.892 23.3165C19.1222 23.6619 19.0289 24.1284 18.6835 24.3587C18.3382 24.5889 17.8716 24.4956 17.6414 24.1502L17.5795 24.0575L16.5266 25.9879H17.5151C17.9302 25.9879 18.2666 26.3244 18.2666 26.7394C18.2666 27.1545 17.9302 27.4909 17.5151 27.4909H16.5266C15.3857 27.4909 14.6607 26.2698 15.2071 25.2682L16.0446 23.7328C15.695 23.7482 15.3712 23.5167 15.2831 23.1642C15.1824 22.7615 15.4272 22.3534 15.8299 22.2528L17.3329 21.8771ZM22.2793 23.0736C22.6436 22.8749 23.1001 23.0091 23.2988 23.3735L24.3323 25.2682C24.8786 26.2698 24.1537 27.4909 23.0128 27.4909H20.9857L21.1934 27.9064C21.379 28.2776 21.2285 28.729 20.8572 28.9146C20.4861 29.1002 20.0346 28.9498 19.849 28.5785L19.0975 27.0755C18.9917 26.8639 18.9917 26.6149 19.0975 26.4033L19.849 24.9003C20.0346 24.5291 20.4861 24.3786 20.8572 24.5642C21.2285 24.7499 21.379 25.2013 21.1934 25.5725L20.9857 25.9879H23.0128L21.9793 24.0933C21.7806 23.7289 21.9149 23.2724 22.2793 23.0736Z" fill="black"/>
</svg>
