<svg width="40" height="40" viewBox="0 0 40 40" fill="none" xmlns="http://www.w3.org/2000/svg">
<path d="M16.1464 8H23.1863H28.6665C29.0347 8 29.3328 8.29887 29.3328 8.66709V31.3329C29.3328 31.7011 29.0347 32 28.6665 32H10.6671C10.2989 32 10 31.7011 10 31.3329V8.66709C10 8.29887 10.2989 8 10.6671 8H16.1464ZM23.8534 9.33338V11.2262C23.8534 11.5945 23.5545 11.8933 23.1863 11.8933H16.1464C15.7782 11.8933 15.4802 11.5945 15.4802 11.2262V9.33338H11.3334V30.6666H27.9994V9.33338H23.8534ZM22.52 9.33338H16.8135V10.56H22.52V9.33338Z" fill="black"/>
<path fill-rule="evenodd" clip-rule="evenodd" d="M18.3967 15.7597C19.1083 14.6922 20.6993 14.7628 21.3137 15.8891L22.0713 17.2781L22.1746 17.1298C22.444 16.7433 22.9756 16.6484 23.3621 16.9177C23.7486 17.1871 23.8435 17.7187 23.5742 18.1052L22.6825 19.3846C22.523 19.6134 22.2616 19.7498 21.9827 19.7498H20.3156C19.8445 19.7498 19.4626 19.368 19.4626 18.8969C19.4626 18.4258 19.8445 18.0439 20.3156 18.0439H20.5459L19.8161 16.7059L18.8929 18.0906C18.6316 18.4825 18.1021 18.5885 17.7101 18.3272C17.3182 18.0659 17.2122 17.5363 17.4736 17.1443L18.3967 15.7597ZM17.1234 18.9224C17.4731 18.835 17.8401 18.9768 18.04 19.2767L18.8929 20.5561C19.1542 20.9481 19.0484 21.4776 18.6563 21.739C18.2644 22.0002 17.7348 21.8943 17.4736 21.5024L17.4034 21.3971L16.2083 23.5881H17.3303C17.8014 23.5881 18.1832 23.9699 18.1832 24.441C18.1832 24.9121 17.8014 25.2939 17.3303 25.2939H16.2083C14.9135 25.2939 14.0906 23.908 14.7107 22.7712L15.6612 21.0286C15.2645 21.0461 14.897 20.7833 14.797 20.3832C14.6827 19.9262 14.9605 19.4631 15.4176 19.3489L17.1234 18.9224ZM22.7374 20.2804C23.1509 20.0549 23.669 20.2073 23.8946 20.6208L25.0676 22.7712C25.6876 23.908 24.8648 25.2939 23.57 25.2939H21.2692L21.505 25.7654C21.7157 26.1868 21.5448 26.6992 21.1235 26.9098C20.7022 27.1204 20.1898 26.9497 19.9792 26.5283L19.1262 24.8224C19.0061 24.5823 19.0061 24.2997 19.1262 24.0596L19.9792 22.3537C20.1898 21.9323 20.7022 21.7616 21.1235 21.9722C21.5448 22.1829 21.7157 22.6953 21.505 23.1166L21.2692 23.5881H23.57L22.397 21.4377C22.1715 21.0241 22.3238 20.506 22.7374 20.2804Z" fill="black"/>
</svg>
