<svg width="40" height="40" viewBox="0 0 40 40" fill="none" xmlns="http://www.w3.org/2000/svg">
<path d="M20.3301 19.7672H24.0725H25.4859V9.45473H22.8683V12.1473C22.8683 12.458 22.6164 12.7093 22.3063 12.7093H18.3538C18.0431 12.7093 17.7918 12.4573 17.7918 12.1473V9.45473H15.1742V19.7672H16.5877H20.3301ZM21.3527 18.2655C21.042 18.2655 20.7907 18.0136 20.7907 17.7028C20.7907 17.392 21.0427 17.1408 21.3527 17.1408H23.7705C24.0813 17.1408 24.3333 17.3928 24.3333 17.7028C24.3333 18.0136 24.0813 18.2655 23.7705 18.2655H21.3527ZM21.7436 9.45473H18.9166V11.5845H21.7436V9.45473ZM26.6115 19.7672H28.0249H31.7673C32.0781 19.7672 32.3301 20.0192 32.3301 20.33V31.7672C32.3301 32.078 32.0781 32.33 31.7673 32.33H20.3301H8.89283C8.58207 32.33 8.33008 32.078 8.33008 31.7672V20.33C8.33008 20.0192 8.58207 19.7672 8.89283 19.7672H12.6352H14.0487V8.89271C14.0487 8.58195 14.3007 8.32996 14.6115 8.32996H18.3538H22.3063H26.0487C26.3595 8.32996 26.6115 8.58195 26.6115 8.89271V19.7672ZM13.5888 28.578C13.8988 28.578 14.1508 28.83 14.1508 29.14C14.1508 29.4508 13.8988 29.7028 13.5888 29.7028H11.171C10.8603 29.7028 10.6083 29.4508 10.6083 29.14C10.6083 28.8293 10.8603 28.578 11.171 28.578H13.5888ZM13.198 20.8927V23.0218H16.0249V20.8927H14.6115H13.198ZM17.1497 20.8927V23.5845C17.1497 23.8953 16.8977 24.1473 16.587 24.1473H12.6352C12.3244 24.1473 12.0732 23.8953 12.0732 23.5845V20.8927H9.45558V31.2052H19.7681V20.8927H17.1505H17.1497ZM27.0714 29.7028C26.7613 29.7028 26.5093 29.4508 26.5093 29.14C26.5093 28.8293 26.7613 28.578 27.0714 28.578H29.4891C29.7999 28.578 30.0519 28.83 30.0519 29.14C30.0519 29.4508 29.7999 29.7028 29.4891 29.7028H27.0714ZM28.587 20.8927V23.5845C28.587 23.8953 28.335 24.1473 28.0249 24.1473H24.0732C23.7624 24.1473 23.5104 23.8953 23.5104 23.5845V20.8927H20.8928V31.2052H31.2053V20.8927H28.5877H28.587ZM24.6352 20.8927V23.0218H27.4622V20.8927H26.0487H24.6352Z" fill="black"/>
</svg>
