<svg width="32" height="33" viewBox="0 0 32 33" fill="none" xmlns="http://www.w3.org/2000/svg">
<g clip-path="url(#clip0_1212_3743)">
<path d="M16.9682 24.6244C16.8059 25.1244 16.4607 25.5445 16.0017 25.8006C15.5427 26.0567 15.0039 26.1298 14.4933 26.0053L14.3431 25.962L12.3617 25.3182C11.8618 25.156 11.4416 24.8107 11.1855 24.3517C10.9295 23.8928 10.8563 23.3539 10.9808 22.8433L11.0241 22.6931L16.9682 24.6244ZM19.4683 6.81712C21.2664 7.40132 22.7673 8.66107 23.6544 10.3306C24.5415 12.0002 24.7454 13.9491 24.2232 15.7661L24.1499 16.0052L22.9383 19.7341L23.5703 23.9306C23.5979 24.1137 23.5807 24.3008 23.5202 24.4758C23.4597 24.6508 23.3576 24.8086 23.2228 24.9355C23.088 25.0625 22.9244 25.1549 22.7461 25.2048C22.5678 25.2547 22.38 25.2607 22.1989 25.2221L22.083 25.1911L6.55307 20.1451C6.37688 20.0879 6.21717 19.9888 6.08765 19.8564C5.95813 19.7239 5.86264 19.5621 5.80938 19.3847C5.75612 19.2072 5.74667 19.0195 5.78184 18.8377C5.81701 18.6558 5.89576 18.4851 6.01132 18.3404L6.09069 18.2512L9.0687 15.2276L10.2803 11.4987C10.8779 9.65944 12.1816 8.13295 13.9047 7.25499C15.6278 6.37703 17.6291 6.21952 19.4683 6.81712Z" fill="white"/>
</g>
<defs>
<clipPath id="clip0_1212_3743">
<rect width="25" height="25" fill="white" transform="translate(8.22363 0.973145) rotate(18)"/>
</clipPath>
</defs>
</svg>
